0
SECTION
2
HEADER
9
$INSUNITS
70
4
9
$ACADVER
1
AC1014
9
$HANDSEED
5
FFFF
0
ENDSEC
0
SECTION
2
TABLES
0
TABLE
2
VPORT
5
8
100
AcDbSymbolTable
0
ENDTAB
0
TABLE
2
LTYPE
5
5
100
AcDbSymbolTable
0
LTYPE
5
14
100
AcDbSymbolTableRecord
100
AcDbLinetypeTableRecord
2
BYBLOCK
70
0
0
LTYPE
5
15
100
AcDbSymbolTableRecord
100
AcDbLinetypeTableRecord
2
BYLAYER
70
0
0
ENDTAB
0
TABLE
2
LAYER
5
2
100
AcDbSymbolTable
70
2
0
LAYER
5
50
100
AcDbSymbolTableRecord
100
AcDbLayerTableRecord
2
0
70
0
6
CONTINUOUS
0
ENDTAB
0
TABLE
2
STYLE
5
3
100
AcDbSymbolTable
70
1
0
STYLE
5
11
100
AcDbSymbolTableRecord
100
AcDbTextStyleTableRecord
2
STANDARD
70
0
0
ENDTAB
0
TABLE
2
VIEW
5
6
100
AcDbSymbolTable
70
0
0
ENDTAB
0
TABLE
2
UCS
5
7
100
AcDbSymbolTable
70
0
0
ENDTAB
0
TABLE
2
APPID
5
9
100
AcDbSymbolTable
70
2
0
APPID
5
12
100
AcDbSymbolTableRecord
100
AcDbRegAppTableRecord
2
ACAD
70
0
0
ENDTAB
0
TABLE
2
DIMSTYLE
5
A
100
AcDbSymbolTable
70
1
0
ENDTAB
0
TABLE
2
BLOCK_RECORD
5
1
100
AcDbSymbolTable
70
1
0
BLOCK_RECORD
5
1F
100
AcDbSymbolTableRecord
100
AcDbBlockTableRecord
2
*MODEL_SPACE
0
BLOCK_RECORD
5
1B
100
AcDbSymbolTableRecord
100
AcDbBlockTableRecord
2
*PAPER_SPACE
0
ENDTAB
0
ENDSEC
0
SECTION
2
BLOCKS
0
BLOCK
5
20
100
AcDbEntity
100
AcDbBlockBegin
2
*MODEL_SPACE
0
ENDBLK
5
21
100
AcDbEntity
100
AcDbBlockEnd
0
BLOCK
5
1C
100
AcDbEntity
100
AcDbBlockBegin
2
*PAPER_SPACE
0
ENDBLK
5
1D
100
AcDbEntity
100
AcDbBlockEnd
0
ENDSEC
0
SECTION
2
ENTITIES
0
LWPOLYLINE
5
100
100
AcDbEntity
8
0
100
AcDbPolyline
90
43
70
1
43
0.0
10
39.791754478219083
20
14.857443117429732
42
-0.022730881709491915
10
39.109208486495362
20
15.785167843034367
42
-0.049228685075936224
10
37.935602482065214
20
17.980830200936488
42
-0.049228708738350731
10
37.212899472758501
20
20.36326270250234
42
-0.049228690127690378
10
36.968872547077595
20
22.840909830697854
10
36.968872547086761
20
52.05090977989785
42
-0.049228690127469013
10
37.212899472788962
20
54.528556908077846
42
-0.049228708737836684
10
37.935602482054797
20
56.910989409631519
42
-0.049228685014043871
10
39.109208484764004
20
59.106651764929239
42
-0.049228700729343274
10
40.688616416779496
20
61.031165923533024
42
-0.049228695870550419
10
42.613130613902648
20
62.610573909204476
42
-0.049228695765494268
10
44.808792943929902
20
63.78417987505982
42
-0.049228698785591454
10
47.191225432866275
20
64.50688287516013
42
-0.049228698686328135
10
49.668872587749661
20
64.750909805305227
10
116.97887252684966
20
64.750909805301404
42
-0.049228683948823619
10
118.21769610525472
20
64.628896334229765
42
-0.04922870982014739
10
119.4089123530769
20
64.267544843529294
42
-0.049228690861434547
10
120.5067435494813
20
63.680741817022053
42
-0.049228689947603252
10
121.46900061436307
20
62.891037869734603
42
-0.049228701353691923
10
122.25870461475895
20
61.928780783982695
42
-0.04922870179239891
10
122.84550759369056
20
60.830949611052567
42
-0.049228694527016732
10
123.20685908311557
20
59.639733330995284
42
-0.049228693324624311
10
123.32887254713667
20
58.400909792587854
10
123.32887254710135
20
16.490909817997832
42
-0.049228693321295584
10
123.20685908318387
20
15.252086279664422
42
-0.049228694531285089
10
122.84550759369392
20
14.060869999508487
42
-0.049228701800049859
10
122.25870461467785
20
12.963038826406464
42
-0.049228701216643293
10
121.46900061668093
20
12.000781743141109
42
-0.049228690034531272
10
120.50674355037037
20
11.211077794152187
42
-0.049228691020881114
10
119.40891235036403
20
10.62427476589246
42
-0.049228709573965447
10
118.21769610848094
20
10.262923276924372
42
-0.049228684078498092
10
116.97887252684967
20
10.140909805232221
10
49.668872587749661
20
10.140909805195736
42
-0.049228698617135289
10
47.191225436294886
20
10.384936734735886
42
-0.049228698855064978
10
44.808792943933867
20
11.107639735533549
42
-0.049228695835516673
10
42.613130610976441
20
12.281245703346508
42
-0.030220022608735311
10
41.393951341537431
20
13.206661970637406
10
42.118634823173991
20
13.931345452273973
10
42.854427181032932
20
13.116276017583148
10
46.449252502282107
20
16.361453528400062
10
42.775094594951909
20
20.431479231317525
10
39.180269273700276
20
17.186301720498403
10
40.575288812832582
20
15.640977452043261
0
LWPOLYLINE
5
101
100
AcDbEntity
8
0
100
AcDbPolyline
90
16
70
1
43
0.0
10
108.72387255363807
20
14.839909825539026
42
-0.098962155017034467
10
109.30700844972736
20
14.723672903084777
42
-0.09940231917667236
10
109.80136723441861
20
14.39341817440538
42
-0.099300520794178282
10
110.13168713530919
20
13.899042322586022
42
-0.099319531665088501
10
110.24768009541303
20
13.315909807422905
42
-0.099319483008300652
10
110.13168715994706
20
12.73277732121112
42
-0.09930056749402015
10
109.80136719753082
20
12.238401383839893
42
-0.099402292566052708
10
109.3070084610879
20
11.90814672999551
42
-0.098962171678421917
10
108.72387255072366
20
11.791909797626765
42
-0.098962175592142071
10
108.14073664276106
20
11.908146732027681
42
-0.099402283823066026
10
107.64637790558189
20
12.238401378954713
42
-0.099300548010283499
10
107.31605789771424
20
12.732777346223926
42
-0.099319508247903893
10
107.20006497319744
20
13.315909806333082
42
-0.09931955664798614
10
107.31605792092758
20
13.899042294140621
42
-0.099300502587637382
10
107.64637787140529
20
14.393418182107746
42
-0.099402309651129173
10
108.14073665341226
20
14.723672900749399
42
-0.098962160035631491
0
LWPOLYLINE
5
102
100
AcDbEntity
8
0
100
AcDbPolyline
90
16
70
1
43
0.0
10
108.72387255397484
20
63.099909812913602
42
-0.098962171146959627
10
109.30700846113768
20
62.983672880488967
42
-0.099402292745016871
10
109.80136719834758
20
62.653418225924263
42
-0.099300567253219521
10
110.13168715980717
20
62.159042289609317
42
-0.099319483062584563
10
110.24768009541236
20
61.575909803102888
42
-0.099319531314399079
10
110.13168713609801
20
60.992777289881218
42
-0.099300521497225056
10
109.80136723293376
20
60.498401434621684
42
-0.099402318410589705
10
109.30700845198827
20
60.168146708409232
42
-0.098962155897061421
10
108.72387255081357
20
60.051909784971222
42
-0.098962159584135859
10
108.14073665328023
20
60.168146709809847
42
-0.099402309685169804
10
107.64637787120286
20
60.49840142871691
42
-0.099300502535900642
10
107.31605792089481
20
60.992777316427038
42
-0.09931955663822116
10
107.20006497320314
20
61.575909804187717
42
-0.099319508100914194
10
107.31605789736909
20
62.159042263485389
42
-0.099300548215985981
10
107.64637790577405
20
62.653418231851816
42
-0.099402284304246705
10
108.14073664571694
20
62.98367287972237
42
-0.098962175600775845
0
LWPOLYLINE
5
103
100
AcDbEntity
8
0
100
AcDbPolyline
90
16
70
1
43
0.0
10
42.683872581282543
20
59.924909806561367
42
-0.098962222504708874
10
43.267008485250088
20
59.808672867667383
42
-0.09940228362229199
10
43.761367223714714
20
59.478418197407301
42
-0.099300537412527548
10
44.091687155780903
20
58.984042306482102
42
-0.099319531483057027
10
44.207680085270873
20
58.400909760744966
42
-0.099319532235376234
10
44.091687164804327
20
57.817777372151568
42
-0.099300533346762199
10
43.761367221040729
20
57.323401417435626
42
-0.099402288651052287
10
43.267008500528554
20
56.993146751694482
42
-0.098962205689213822
10
42.683872581285854
20
56.876909778619165
42
-0.098962208676913174
10
42.100736661622101
20
56.993146730587185
42
-0.099402271618754728
10
41.606377913250228
20
57.323401377469764
42
-0.099300527089844853
10
41.27605791087796
20
57.817777381008078
42
-0.099319534958814126
10
41.16006499551937
20
58.400909762270139
42
-0.099319533405363383
10
41.276057919233644
20
58.984042296012859
42
-0.099300531930317557
10
41.60637791262338
20
59.47841823941453
42
-0.099402265718884941
10
42.100736674761649
20
59.808672887883951
42
-0.09896222587705257
0
LWPOLYLINE
5
104
100
AcDbEntity
8
0
100
AcDbPolyline
90
4
70
1
43
0.0
10
98.182872547149671
20
37.445909805297852
10
102.62787254714966
20
37.445909805297852
10
102.62787254714966
20
39.985909805297851
10
98.182872547149671
20
39.985909805297851
0
LWPOLYLINE
5
105
100
AcDbEntity
8
0
100
AcDbPolyline
90
4
70
1
43
0.0
10
98.182872547149671
20
31.730909805297848
10
102.62787254714966
20
31.730909805297848
10
102.62787254714966
20
36.175909805297849
10
98.182872547149671
20
36.175909805297849
0
LWPOLYLINE
5
106
100
AcDbEntity
8
0
100
AcDbPolyline
90
4
70
1
43
0.0
10
96.65887254714967
20
46.335909805297852
10
103.00887254714966
20
46.335909805297852
10
103.00887254714966
20
52.685909805297854
10
96.65887254714967
20
52.685909805297854
0
LWPOLYLINE
5
107
100
AcDbEntity
8
0
100
AcDbPolyline
90
4
70
1
43
0.0
10
89.673872547149656
20
17.125909805297852
10
102.62787254714966
20
17.125909805297852
10
102.62787254714966
20
29.190909805297846
10
89.673872547149656
20
29.190909805297846
0
LWPOLYLINE
5
108
100
AcDbEntity
8
0
100
AcDbPolyline
90
4
70
1
43
0.0
10
69.988872547149668
20
28.555909805297848
10
87.768872547149655
20
28.555909805297848
10
87.768872547149655
20
46.335909805297852
10
69.988872547149668
20
46.335909805297852
0
LWPOLYLINE
5
109
100
AcDbEntity
8
0
100
AcDbPolyline
90
4
70
1
43
0.0
10
56.018872547149662
20
19.665909805297844
10
64.908872547149656
20
19.665909805297844
10
64.908872547149656
20
28.555909805297848
10
56.018872547149662
20
28.555909805297848
0
LWPOLYLINE
5
110
100
AcDbEntity
8
0
100
AcDbPolyline
90
4
70
1
43
0.0
10
56.018872547149662
20
32.365909805297846
10
64.908872547149656
20
32.365909805297846
10
64.908872547149656
20
46.335909805297852
10
56.018872547149662
20
46.335909805297852
0
CIRCLE
5
111
100
AcDbEntity
8
0
100
AcDbCircle
10
47.76387254714966
20
62.845909805197842
30
4.7134984804131363e-09
40
0.76200000000000268
210
0
220
0
230
1
0
CIRCLE
5
112
100
AcDbEntity
8
0
100
AcDbCircle
10
47.76387254714966
20
60.305909805197835
30
4.7134984804131363e-09
40
0.76200000000000223
210
0
220
0
230
1
0
CIRCLE
5
113
100
AcDbEntity
8
0
100
AcDbCircle
10
50.303872547149666
20
62.845909805197842
30
4.7134984804131363e-09
40
0.76200000000000268
210
0
220
0
230
1
0
CIRCLE
5
114
100
AcDbEntity
8
0
100
AcDbCircle
10
50.303872547149666
20
60.305909805197835
30
4.7134984804131363e-09
40
0.76200000000000223
210
0
220
0
230
1
0
CIRCLE
5
115
100
AcDbEntity
8
0
100
AcDbCircle
10
52.843872547149658
20
62.845909805197842
30
4.7134984804131363e-09
40
0.76200000000000268
210
0
220
0
230
1
0
CIRCLE
5
116
100
AcDbEntity
8
0
100
AcDbCircle
10
52.843872547149658
20
60.305909805197835
30
4.7134984804131363e-09
40
0.76200000000000223
210
0
220
0
230
1
0
CIRCLE
5
117
100
AcDbEntity
8
0
100
AcDbCircle
10
55.383872547149664
20
62.845909805197842
30
4.7134984804131363e-09
40
0.76200000000000268
210
0
220
0
230
1
0
CIRCLE
5
118
100
AcDbEntity
8
0
100
AcDbCircle
10
55.383872547149664
20
60.305909805197835
30
4.7134984804131363e-09
40
0.76200000000000223
210
0
220
0
230
1
0
CIRCLE
5
119
100
AcDbEntity
8
0
100
AcDbCircle
10
57.923872547149671
20
62.845909805197842
30
4.7134984804131363e-09
40
0.76200000000000268
210
0
220
0
230
1
0
CIRCLE
5
120
100
AcDbEntity
8
0
100
AcDbCircle
10
57.923872547149671
20
60.305909805197835
30
4.7134984804131363e-09
40
0.76200000000000223
210
0
220
0
230
1
0
CIRCLE
5
121
100
AcDbEntity
8
0
100
AcDbCircle
10
60.463872547149663
20
62.845909805197842
30
4.7134984804131363e-09
40
0.76200000000000268
210
0
220
0
230
1
0
CIRCLE
5
122
100
AcDbEntity
8
0
100
AcDbCircle
10
60.463872547149663
20
60.305909805197835
30
4.7134984804131363e-09
40
0.76200000000000223
210
0
220
0
230
1
0
CIRCLE
5
123
100
AcDbEntity
8
0
100
AcDbCircle
10
63.003872547149669
20
62.845909805197842
30
4.7134984804131363e-09
40
0.76200000000000268
210
0
220
0
230
1
0
CIRCLE
5
124
100
AcDbEntity
8
0
100
AcDbCircle
10
63.003872547149669
20
60.305909805197835
30
4.7134984804131363e-09
40
0.76200000000000223
210
0
220
0
230
1
0
CIRCLE
5
125
100
AcDbEntity
8
0
100
AcDbCircle
10
65.543872547149675
20
62.845909805197842
30
4.7134984804131363e-09
40
0.76200000000000268
210
0
220
0
230
1
0
CIRCLE
5
126
100
AcDbEntity
8
0
100
AcDbCircle
10
65.543872547149675
20
60.305909805197835
30
4.7134984804131363e-09
40
0.76200000000000223
210
0
220
0
230
1
0
CIRCLE
5
127
100
AcDbEntity
8
0
100
AcDbCircle
10
68.083872547149667
20
62.845909805197842
30
4.7134984804131363e-09
40
0.76200000000000268
210
0
220
0
230
1
0
CIRCLE
5
128
100
AcDbEntity
8
0
100
AcDbCircle
10
68.083872547149667
20
60.305909805197835
30
4.7134984804131363e-09
40
0.76200000000000223
210
0
220
0
230
1
0
CIRCLE
5
129
100
AcDbEntity
8
0
100
AcDbCircle
10
70.623872547149659
20
62.845909805197842
30
4.7134984804131363e-09
40
0.76200000000000268
210
0
220
0
230
1
0
CIRCLE
5
130
100
AcDbEntity
8
0
100
AcDbCircle
10
70.623872547149659
20
60.305909805197835
30
4.7134984804131363e-09
40
0.76200000000000223
210
0
220
0
230
1
0
CIRCLE
5
131
100
AcDbEntity
8
0
100
AcDbCircle
10
73.16387254714968
20
62.845909805197842
30
4.7134984804131363e-09
40
0.76200000000000268
210
0
220
0
230
1
0
CIRCLE
5
132
100
AcDbEntity
8
0
100
AcDbCircle
10
73.16387254714968
20
60.305909805197835
30
4.7134984804131363e-09
40
0.76200000000000223
210
0
220
0
230
1
0
CIRCLE
5
133
100
AcDbEntity
8
0
100
AcDbCircle
10
75.703872547149672
20
62.845909805197842
30
4.7134984804131363e-09
40
0.76200000000000268
210
0
220
0
230
1
0
CIRCLE
5
134
100
AcDbEntity
8
0
100
AcDbCircle
10
75.703872547149672
20
60.305909805197835
30
4.7134984804131363e-09
40
0.76200000000000223
210
0
220
0
230
1
0
CIRCLE
5
135
100
AcDbEntity
8
0
100
AcDbCircle
10
78.243872547149664
20
62.845909805197842
30
4.7134984804131363e-09
40
0.76200000000000268
210
0
220
0
230
1
0
CIRCLE
5
136
100
AcDbEntity
8
0
100
AcDbCircle
10
78.243872547149664
20
60.305909805197835
30
4.7134984804131363e-09
40
0.76200000000000223
210
0
220
0
230
1
0
CIRCLE
5
137
100
AcDbEntity
8
0
100
AcDbCircle
10
80.78387254714967
20
62.845909805197842
30
4.7134984804131363e-09
40
0.76200000000000268
210
0
220
0
230
1
0
CIRCLE
5
138
100
AcDbEntity
8
0
100
AcDbCircle
10
80.78387254714967
20
60.305909805197835
30
4.7134984804131363e-09
40
0.76200000000000223
210
0
220
0
230
1
0
CIRCLE
5
139
100
AcDbEntity
8
0
100
AcDbCircle
10
83.323872547149662
20
62.845909805197842
30
4.7134984804131363e-09
40
0.76200000000000268
210
0
220
0
230
1
0
CIRCLE
5
140
100
AcDbEntity
8
0
100
AcDbCircle
10
83.323872547149662
20
60.305909805197835
30
4.7134984804131363e-09
40
0.76200000000000223
210
0
220
0
230
1
0
CIRCLE
5
141
100
AcDbEntity
8
0
100
AcDbCircle
10
85.863872547149668
20
62.845909805197842
30
4.7134984804131363e-09
40
0.76200000000000268
210
0
220
0
230
1
0
CIRCLE
5
142
100
AcDbEntity
8
0
100
AcDbCircle
10
85.863872547149668
20
60.305909805197835
30
4.7134984804131363e-09
40
0.76200000000000223
210
0
220
0
230
1
0
CIRCLE
5
143
100
AcDbEntity
8
0
100
AcDbCircle
10
88.403872547149675
20
62.845909805197842
30
4.7134984804131363e-09
40
0.76200000000000268
210
0
220
0
230
1
0
CIRCLE
5
144
100
AcDbEntity
8
0
100
AcDbCircle
10
88.403872547149675
20
60.305909805197835
30
4.7134984804131363e-09
40
0.76200000000000223
210
0
220
0
230
1
0
CIRCLE
5
145
100
AcDbEntity
8
0
100
AcDbCircle
10
90.943872547149667
20
62.845909805197842
30
4.7134984804131363e-09
40
0.76200000000000268
210
0
220
0
230
1
0
CIRCLE
5
146
100
AcDbEntity
8
0
100
AcDbCircle
10
90.943872547149667
20
60.305909805197835
30
4.7134984804131363e-09
40
0.76200000000000223
210
0
220
0
230
1
0
CIRCLE
5
147
100
AcDbEntity
8
0
100
AcDbCircle
10
93.483872547149673
20
62.845909805197842
30
4.7134984804131363e-09
40
0.76200000000000268
210
0
220
0
230
1
0
CIRCLE
5
148
100
AcDbEntity
8
0
100
AcDbCircle
10
93.483872547149673
20
60.305909805197835
30
4.7134984804131363e-09
40
0.76200000000000223
210
0
220
0
230
1
0
CIRCLE
5
149
100
AcDbEntity
8
0
100
AcDbCircle
10
96.023872547149665
20
62.845909805197842
30
4.7134984804131363e-09
40
0.76200000000000268
210
0
220
0
230
1
0
CIRCLE
5
150
100
AcDbEntity
8
0
100
AcDbCircle
10
96.023872547149665
20
60.305909805197835
30
4.7134984804131363e-09
40
0.76200000000000223
210
0
220
0
230
1
0
CIRCLE
5
151
100
AcDbEntity
8
0
100
AcDbCircle
10
98.563872547149671
20
62.845909805197842
30
4.7134984804131363e-09
40
0.76200000000000268
210
0
220
0
230
1
0
CIRCLE
5
152
100
AcDbEntity
8
0
100
AcDbCircle
10
98.563872547149671
20
60.305909805197835
30
4.7134984804131363e-09
40
0.76200000000000223
210
0
220
0
230
1
0
CIRCLE
5
153
100
AcDbEntity
8
0
100
AcDbCircle
10
101.10387254714966
20
62.845909805197842
30
4.7134984804131363e-09
40
0.76200000000000268
210
0
220
0
230
1
0
CIRCLE
5
154
100
AcDbEntity
8
0
100
AcDbCircle
10
101.10387254714966
20
60.305909805197835
30
4.7134984804131363e-09
40
0.76200000000000223
210
0
220
0
230
1
0
CIRCLE
5
155
100
AcDbEntity
8
0
100
AcDbCircle
10
103.64387254714967
20
62.845909805197842
30
4.7134984804131363e-09
40
0.76200000000000268
210
0
220
0
230
1
0
CIRCLE
5
156
100
AcDbEntity
8
0
100
AcDbCircle
10
103.64387254714967
20
60.305909805197835
30
4.7134984804131363e-09
40
0.76200000000000223
210
0
220
0
230
1
0
CIRCLE
5
157
100
AcDbEntity
8
0
100
AcDbCircle
10
47.76387254714966
20
14.585909805197836
30
4.7134984804131363e-09
40
0.76200000000000589
210
0
220
0
230
1
0
CIRCLE
5
158
100
AcDbEntity
8
0
100
AcDbCircle
10
47.76387254714966
20
12.045909805197841
30
4.7134984804131363e-09
40
0.76200000000000589
210
0
220
0
230
1
0
CIRCLE
5
159
100
AcDbEntity
8
0
100
AcDbCircle
10
50.303872547149666
20
14.585909805197836
30
4.7134984804131363e-09
40
0.76200000000000589
210
0
220
0
230
1
0
CIRCLE
5
160
100
AcDbEntity
8
0
100
AcDbCircle
10
50.303872547149666
20
12.045909805197841
30
4.7134984804131363e-09
40
0.76200000000000589
210
0
220
0
230
1
0
CIRCLE
5
161
100
AcDbEntity
8
0
100
AcDbCircle
10
52.843872547149658
20
14.585909805197836
30
4.7134984804131363e-09
40
0.76200000000000589
210
0
220
0
230
1
0
CIRCLE
5
162
100
AcDbEntity
8
0
100
AcDbCircle
10
52.843872547149658
20
12.045909805197841
30
4.7134984804131363e-09
40
0.76200000000000589
210
0
220
0
230
1
0
CIRCLE
5
163
100
AcDbEntity
8
0
100
AcDbCircle
10
55.383872547149664
20
14.585909805197836
30
4.7134984804131363e-09
40
0.76200000000000589
210
0
220
0
230
1
0
CIRCLE
5
164
100
AcDbEntity
8
0
100
AcDbCircle
10
55.383872547149664
20
12.045909805197841
30
4.7134984804131363e-09
40
0.76200000000000589
210
0
220
0
230
1
0
CIRCLE
5
165
100
AcDbEntity
8
0
100
AcDbCircle
10
57.923872547149671
20
14.585909805197836
30
4.7134984804131363e-09
40
0.76200000000000589
210
0
220
0
230
1
0
CIRCLE
5
166
100
AcDbEntity
8
0
100
AcDbCircle
10
57.923872547149671
20
12.045909805197841
30
4.7134984804131363e-09
40
0.76200000000000589
210
0
220
0
230
1
0
CIRCLE
5
167
100
AcDbEntity
8
0
100
AcDbCircle
10
60.463872547149663
20
14.585909805197836
30
4.7134984804131363e-09
40
0.76200000000000589
210
0
220
0
230
1
0
CIRCLE
5
168
100
AcDbEntity
8
0
100
AcDbCircle
10
60.463872547149663
20
12.045909805197841
30
4.7134984804131363e-09
40
0.76200000000000589
210
0
220
0
230
1
0
CIRCLE
5
169
100
AcDbEntity
8
0
100
AcDbCircle
10
63.003872547149669
20
14.585909805197836
30
4.7134984804131363e-09
40
0.76200000000000589
210
0
220
0
230
1
0
CIRCLE
5
170
100
AcDbEntity
8
0
100
AcDbCircle
10
63.003872547149669
20
12.045909805197841
30
4.7134984804131363e-09
40
0.76200000000000589
210
0
220
0
230
1
0
CIRCLE
5
171
100
AcDbEntity
8
0
100
AcDbCircle
10
65.543872547149675
20
14.585909805197836
30
4.7134984804131363e-09
40
0.76200000000000589
210
0
220
0
230
1
0
CIRCLE
5
172
100
AcDbEntity
8
0
100
AcDbCircle
10
65.543872547149675
20
12.045909805197841
30
4.7134984804131363e-09
40
0.76200000000000589
210
0
220
0
230
1
0
CIRCLE
5
173
100
AcDbEntity
8
0
100
AcDbCircle
10
68.083872547149667
20
14.585909805197836
30
4.7134984804131363e-09
40
0.76200000000000589
210
0
220
0
230
1
0
CIRCLE
5
174
100
AcDbEntity
8
0
100
AcDbCircle
10
68.083872547149667
20
12.045909805197841
30
4.7134984804131363e-09
40
0.76200000000000589
210
0
220
0
230
1
0
CIRCLE
5
175
100
AcDbEntity
8
0
100
AcDbCircle
10
70.623872547149659
20
14.585909805197836
30
4.7134984804131363e-09
40
0.76200000000000589
210
0
220
0
230
1
0
CIRCLE
5
176
100
AcDbEntity
8
0
100
AcDbCircle
10
70.623872547149659
20
12.045909805197841
30
4.7134984804131363e-09
40
0.76200000000000589
210
0
220
0
230
1
0
CIRCLE
5
177
100
AcDbEntity
8
0
100
AcDbCircle
10
73.16387254714968
20
14.585909805197836
30
4.7134984804131363e-09
40
0.76200000000000589
210
0
220
0
230
1
0
CIRCLE
5
178
100
AcDbEntity
8
0
100
AcDbCircle
10
73.16387254714968
20
12.045909805197841
30
4.7134984804131363e-09
40
0.76200000000000589
210
0
220
0
230
1
0
CIRCLE
5
179
100
AcDbEntity
8
0
100
AcDbCircle
10
75.703872547149672
20
14.585909805197836
30
4.7134984804131363e-09
40
0.76200000000000589
210
0
220
0
230
1
0
CIRCLE
5
180
100
AcDbEntity
8
0
100
AcDbCircle
10
75.703872547149672
20
12.045909805197841
30
4.7134984804131363e-09
40
0.76200000000000589
210
0
220
0
230
1
0
CIRCLE
5
181
100
AcDbEntity
8
0
100
AcDbCircle
10
78.243872547149664
20
14.585909805197836
30
4.7134984804131363e-09
40
0.76200000000000589
210
0
220
0
230
1
0
CIRCLE
5
182
100
AcDbEntity
8
0
100
AcDbCircle
10
78.243872547149664
20
12.045909805197841
30
4.7134984804131363e-09
40
0.76200000000000589
210
0
220
0
230
1
0
CIRCLE
5
183
100
AcDbEntity
8
0
100
AcDbCircle
10
80.78387254714967
20
14.585909805197836
30
4.7134984804131363e-09
40
0.76200000000000589
210
0
220
0
230
1
0
CIRCLE
5
184
100
AcDbEntity
8
0
100
AcDbCircle
10
80.78387254714967
20
12.045909805197841
30
4.7134984804131363e-09
40
0.76200000000000589
210
0
220
0
230
1
0
CIRCLE
5
185
100
AcDbEntity
8
0
100
AcDbCircle
10
83.323872547149662
20
14.585909805197836
30
4.7134984804131363e-09
40
0.76200000000000589
210
0
220
0
230
1
0
CIRCLE
5
186
100
AcDbEntity
8
0
100
AcDbCircle
10
83.323872547149662
20
12.045909805197841
30
4.7134984804131363e-09
40
0.76200000000000589
210
0
220
0
230
1
0
CIRCLE
5
187
100
AcDbEntity
8
0
100
AcDbCircle
10
85.863872547149668
20
14.585909805197836
30
4.7134984804131363e-09
40
0.76200000000000589
210
0
220
0
230
1
0
CIRCLE
5
188
100
AcDbEntity
8
0
100
AcDbCircle
10
85.863872547149668
20
12.045909805197841
30
4.7134984804131363e-09
40
0.76200000000000589
210
0
220
0
230
1
0
CIRCLE
5
189
100
AcDbEntity
8
0
100
AcDbCircle
10
88.403872547149675
20
14.585909805197836
30
4.7134984804131363e-09
40
0.76200000000000589
210
0
220
0
230
1
0
CIRCLE
5
190
100
AcDbEntity
8
0
100
AcDbCircle
10
88.403872547149675
20
12.045909805197841
30
4.7134984804131363e-09
40
0.76200000000000589
210
0
220
0
230
1
0
CIRCLE
5
191
100
AcDbEntity
8
0
100
AcDbCircle
10
90.943872547149667
20
14.585909805197836
30
4.7134984804131363e-09
40
0.76200000000000589
210
0
220
0
230
1
0
CIRCLE
5
192
100
AcDbEntity
8
0
100
AcDbCircle
10
90.943872547149667
20
12.045909805197841
30
4.7134984804131363e-09
40
0.76200000000000589
210
0
220
0
230
1
0
CIRCLE
5
193
100
AcDbEntity
8
0
100
AcDbCircle
10
93.483872547149673
20
14.585909805197836
30
4.7134984804131363e-09
40
0.76200000000000589
210
0
220
0
230
1
0
CIRCLE
5
194
100
AcDbEntity
8
0
100
AcDbCircle
10
93.483872547149673
20
12.045909805197841
30
4.7134984804131363e-09
40
0.76200000000000589
210
0
220
0
230
1
0
CIRCLE
5
195
100
AcDbEntity
8
0
100
AcDbCircle
10
96.023872547149665
20
14.585909805197836
30
4.7134984804131363e-09
40
0.76200000000000589
210
0
220
0
230
1
0
CIRCLE
5
196
100
AcDbEntity
8
0
100
AcDbCircle
10
96.023872547149665
20
12.045909805197841
30
4.7134984804131363e-09
40
0.76200000000000589
210
0
220
0
230
1
0
CIRCLE
5
197
100
AcDbEntity
8
0
100
AcDbCircle
10
98.563872547149671
20
14.585909805197836
30
4.7134984804131363e-09
40
0.76200000000000589
210
0
220
0
230
1
0
CIRCLE
5
198
100
AcDbEntity
8
0
100
AcDbCircle
10
98.563872547149671
20
12.045909805197841
30
4.7134984804131363e-09
40
0.76200000000000589
210
0
220
0
230
1
0
CIRCLE
5
199
100
AcDbEntity
8
0
100
AcDbCircle
10
101.10387254714966
20
14.585909805197836
30
4.7134984804131363e-09
40
0.76200000000000589
210
0
220
0
230
1
0
CIRCLE
5
200
100
AcDbEntity
8
0
100
AcDbCircle
10
101.10387254714966
20
12.045909805197841
30
4.7134984804131363e-09
40
0.76200000000000589
210
0
220
0
230
1
0
CIRCLE
5
201
100
AcDbEntity
8
0
100
AcDbCircle
10
103.64387254714967
20
14.585909805197836
30
4.7134984804131363e-09
40
0.76200000000000589
210
0
220
0
230
1
0
CIRCLE
5
202
100
AcDbEntity
8
0
100
AcDbCircle
10
103.64387254714967
20
12.045909805197841
30
4.7134984804131363e-09
40
0.76200000000000589
210
0
220
0
230
1
0
CIRCLE
5
203
100
AcDbEntity
8
0
100
AcDbCircle
10
110.25193654714965
20
47.509353805297856
30
4.7084186549639639e-09
40
0.45999999999999869
210
0
220
0
230
1
0
CIRCLE
5
204
100
AcDbEntity
8
0
100
AcDbCircle
10
112.87194654714966
20
47.509353805297856
30
4.7084186549639639e-09
40
0.45999999999999869
210
0
220
0
230
1
0
CIRCLE
5
205
100
AcDbEntity
8
0
100
AcDbCircle
10
112.87194654714966
20
50.009473805297858
30
4.7084186549639639e-09
40
0.45999999999999869
210
0
220
0
230
1
0
CIRCLE
5
206
100
AcDbEntity
8
0
100
AcDbCircle
10
110.25193654714965
20
50.009473805297858
30
4.7084186549639639e-09
40
0.45999999999999869
210
0
220
0
230
1
0
CIRCLE
5
207
100
AcDbEntity
8
0
100
AcDbCircle
10
110.25193654714965
20
52.009469805297854
30
4.7084186549639639e-09
40
0.45999999999999869
210
0
220
0
230
1
0
CIRCLE
5
208
100
AcDbEntity
8
0
100
AcDbCircle
10
110.25193654714965
20
54.509593805297854
30
4.7084186549639639e-09
40
0.45999999999999869
210
0
220
0
230
1
0
CIRCLE
5
209
100
AcDbEntity
8
0
100
AcDbCircle
10
112.87194654714966
20
52.009469805297854
30
4.7084186549639639e-09
40
0.45999999999999869
210
0
220
0
230
1
0
CIRCLE
5
210
100
AcDbEntity
8
0
100
AcDbCircle
10
112.87194654714966
20
54.509593805297854
30
4.7084186549639639e-09
40
0.45999999999999869
210
0
220
0
230
1
0
CIRCLE
5
211
100
AcDbEntity
8
0
100
AcDbCircle
10
109.90187254714965
20
44.439473805297851
30
4.7084186549639639e-09
40
1.1500000000000017
210
0
220
0
230
1
0
CIRCLE
5
212
100
AcDbEntity
8
0
100
AcDbCircle
10
115.58187254714966
20
44.439473805297865
30
4.7084186549639639e-09
40
1.1500000000000017
210
0
220
0
230
1
0
CIRCLE
5
213
100
AcDbEntity
8
0
100
AcDbCircle
10
115.58187254714966
20
57.579473805297859
30
4.7084186549639639e-09
40
1.1500000000000035
210
0
220
0
230
1
0
CIRCLE
5
214
100
AcDbEntity
8
0
100
AcDbCircle
10
109.90187254714965
20
57.579473805297852
30
4.7084186549639639e-09
40
1.1500000000000035
210
0
220
0
230
1
0
CIRCLE
5
215
100
AcDbEntity
8
0
100
AcDbCircle
10
110.25193654714965
20
29.068989805197859
30
4.7084186549639639e-09
40
0.46000000000000207
210
0
220
0
230
1
0
CIRCLE
5
216
100
AcDbEntity
8
0
100
AcDbCircle
10
112.87194654714966
20
29.068989805197848
30
4.7084186549639639e-09
40
0.46000000000000207
210
0
220
0
230
1
0
CIRCLE
5
217
100
AcDbEntity
8
0
100
AcDbCircle
10
112.87194654714966
20
31.569109805197854
30
4.7084186549639639e-09
40
0.46000000000000207
210
0
220
0
230
1
0
CIRCLE
5
218
100
AcDbEntity
8
0
100
AcDbCircle
10
110.25193654714965
20
31.569109805197854
30
4.7084186549639639e-09
40
0.46000000000000207
210
0
220
0
230
1
0
CIRCLE
5
219
100
AcDbEntity
8
0
100
AcDbCircle
10
110.25193654714965
20
33.56910580519785
30
4.7084186549639639e-09
40
0.45999999999999869
210
0
220
0
230
1
0
CIRCLE
5
220
100
AcDbEntity
8
0
100
AcDbCircle
10
110.25193654714965
20
36.069229805197843
30
4.7084186549639639e-09
40
0.45999999999999869
210
0
220
0
230
1
0
CIRCLE
5
221
100
AcDbEntity
8
0
100
AcDbCircle
10
112.87194654714966
20
33.56910580519785
30
4.7084186549639639e-09
40
0.45999999999999869
210
0
220
0
230
1
0
CIRCLE
5
222
100
AcDbEntity
8
0
100
AcDbCircle
10
112.87194654714966
20
36.06922980519785
30
4.7084186549639639e-09
40
0.45999999999999869
210
0
220
0
230
1
0
CIRCLE
5
223
100
AcDbEntity
8
0
100
AcDbCircle
10
109.90187254714965
20
25.999109805197843
30
4.7084186549639639e-09
40
1.1500000000000052
210
0
220
0
230
1
0
CIRCLE
5
224
100
AcDbEntity
8
0
100
AcDbCircle
10
115.58187254714966
20
25.999109805197858
30
4.7084186549639639e-09
40
1.1500000000000052
210
0
220
0
230
1
0
CIRCLE
5
225
100
AcDbEntity
8
0
100
AcDbCircle
10
115.58187254714966
20
39.139109805197847
30
4.7084186549639639e-09
40
1.1500000000000017
210
0
220
0
230
1
0
CIRCLE
5
226
100
AcDbEntity
8
0
100
AcDbCircle
10
109.90187254714965
20
39.13910980519784
30
4.7084186549639639e-09
40
1.1500000000000017
210
0
220
0
230
1
0
LWPOLYLINE
5
227
100
AcDbEntity
8
0
100
AcDbPolyline
90
8
70
1
43
0.0
10
116.97887252684966
20
64.750909805299102
10
49.668872587749661
20
64.750909805305227
42
0.41421356440947155
10
36.96887254709285
20
52.05090977989785
10
37.029900348558208
20
21.59607970364652
42
0.38665553491641586
10
49.66887258774964
20
10.140909805283114
10
116.97887252684967
20
10.140909805232221
42
0.41421356555792438
10
123.32887254712367
20
16.490909817997839
10
123.20685908310283
20
59.639733330992755
42
0.35780572054852461
0
CIRCLE
5
228
100
AcDbEntity
8
0
100
AcDbCircle
10
42.684676626019652
20
58.408090897317848
30
4.7134982028573802e-09
40
1.525827222928805
210
0
220
0
230
1
0
CIRCLE
5
229
100
AcDbEntity
8
0
100
AcDbCircle
10
108.72467646264965
20
61.583090126917853
30
4.7134982028573802e-09
40
1.5311805529875875
210
0
220
0
230
1
0
CIRCLE
5
230
100
AcDbEntity
8
0
100
AcDbCircle
10
108.72467646264965
20
13.308729483597839
30
4.7134982028573802e-09
40
1.5246283976061172
210
0
220
0
230
1
0
ENDSEC
0
SECTION
2
OBJECTS
0
DICTIONARY
5
C
100
AcDbDictionary
3
ACAD_GROUP
350
D
3
ACAD_MLINESTYLE
350
17
0
DICTIONARY
5
D
100
AcDbDictionary
0
DICTIONARY
5
1A
330
C
100
AcDbDictionary
0
DICTIONARY
5
17
100
AcDbDictionary
0
ENDSEC
0
EOF
